<svg width="246" height="52" viewBox="0 0 246 52" fill="none" xmlns="http://www.w3.org/2000/svg">
<path d="M94.0771 23.6641C95.4243 23.2722 96.7488 22.747 98.1236 22.5353C99.2217 22.3667 100.39 22.5192 101.509 22.6437C103.833 22.899 105.806 24.0343 107.746 25.2293C108.787 25.4804 109.822 25.777 110.876 25.9745C113.899 26.5422 116.873 26.4184 119.727 25.1823C120.531 24.8332 121.392 24.5338 121.911 23.5482L121.797 24.528C122.355 22.9575 121.499 21.7297 119.821 21.8371C118.277 21.9361 116.742 22.1771 115.203 22.3627C114.142 22.4926 113.071 22.6437 112.004 22.7574C111.794 22.7792 111.569 22.6721 111.272 22.608C112.094 21.931 112.857 21.3606 113.551 20.7168C114.245 20.073 114.746 19.2776 114.817 18.2874C114.896 17.1488 114.196 16.271 113.055 16.0461C111.523 15.7461 110.091 16.1659 108.715 16.728C107.617 17.1716 106.603 17.7743 105.551 18.3074L103.731 19.6132L103.577 19.4404L105.068 17.8453C105.562 16.8412 106.12 15.8909 106.162 14.6998C106.208 13.4129 104.742 12.0242 103.189 12.4384C101.211 12.966 99.711 14.1838 98.3973 15.6572C97.5155 16.6399 96.6745 17.6617 96.2505 18.9456C96.221 19.0332 96.0995 19.0894 95.9942 19.1853C95.9363 18.6389 95.898 18.1189 95.8312 17.6041C95.7039 16.7144 95.0569 16.0525 94.2622 15.9662C93.513 15.8783 92.8595 16.3413 92.4801 17.2145C92.429 17.4156 92.3061 17.5888 92.2276 17.781C91.8935 18.4757 91.4013 19.1498 91.7904 19.9911L92.1013 20.3755C92.5056 20.6858 92.9085 20.1461 92.939 20.8216C92.98 21.586 93.1786 22.3842 93.3797 23.1347C93.4361 23.3372 93.9239 23.4846 94.0771 23.6641Z" fill="#F6342F"/>
<path d="M121.894 24.3562L122.009 23.3779C121.485 24.3563 120.614 24.6539 119.799 25.0063C116.912 26.2359 113.9 26.3545 110.837 25.7826C109.77 25.5836 108.455 25.2544 107.4 25.002C107.903 25.471 108.701 25.9438 109.166 26.4445C110.061 27.4074 110.917 28.3949 111.789 29.3722C113.824 29.7826 115.847 29.7778 117.704 28.8203C119.622 27.8303 121.317 26.5706 121.894 24.3562Z" fill="#B3151C"/>
<path d="M94.024 23.6022C93.8731 23.4263 93.6613 23.2719 93.6074 23.0738C93.4088 22.3387 93.1685 21.5937 93.1276 20.8452C93.092 20.1831 92.6266 19.9972 92.2333 19.6937L92.0118 20.0463C91.6281 19.2222 91.9272 18.5438 92.2558 17.8638C92.333 17.6757 92.3969 17.4825 92.4471 17.2856C91.2839 18.7342 90.8763 20.4398 90.9089 22.2239C90.9254 23.2825 91.2204 24.3368 91.3951 25.3922C91.6477 25.2132 91.8973 25.0304 92.1544 24.857C92.7746 24.435 93.3978 24.0167 94.024 23.6022Z" fill="#B3151C"/>
<path d="M1.21058 43.1665L18.2092 18.1477H2.62293V11.6913H28.3983V15.6257L11.6014 40.5436H29.054V47H1.21058V43.1665ZM44.0389 47.5044C39.8691 47.5044 36.6073 46.3443 34.2534 44.024C31.9331 41.7037 30.773 38.4923 30.773 34.3897C30.773 30.2872 31.9331 27.0758 34.2534 24.7555C36.6073 22.4352 39.8691 21.2751 44.0389 21.2751C48.2087 21.2751 51.4538 22.4352 53.7741 24.7555C56.128 27.0758 57.3049 30.2872 57.3049 34.3897C57.3049 38.4923 56.128 41.7037 53.7741 44.024C51.4538 46.3443 48.2087 47.5044 44.0389 47.5044ZM44.0389 42.2081C45.9557 42.2081 47.4521 41.5187 48.5282 40.14C49.6043 38.7613 50.1423 36.8445 50.1423 34.3897C50.1423 31.935 49.6043 30.0182 48.5282 28.6395C47.4521 27.2608 45.9557 26.5714 44.0389 26.5714C42.1222 26.5714 40.6258 27.2608 39.5497 28.6395C38.4736 30.0182 37.9356 31.935 37.9356 34.3897C37.9356 36.8445 38.4736 38.7613 39.5497 40.14C40.6258 41.5187 42.1222 42.2081 44.0389 42.2081ZM60.984 28.5386C60.984 25.5458 60.9167 23.2927 60.7822 21.7795H67.4908C67.6926 23.3264 67.7935 24.7891 67.7935 26.1679H67.8944C68.466 24.7219 69.5085 23.5449 71.0217 22.637C72.5686 21.7291 74.2836 21.2751 76.1667 21.2751C79.0587 21.2751 81.2444 22.2503 82.724 24.2007C84.2036 26.1511 84.9434 29.043 84.9434 32.8765V47H77.7808V32.8261C77.7808 30.8084 77.4614 29.3456 76.8224 28.4377C76.1835 27.5298 75.1579 27.0758 73.7455 27.0758C72.0642 27.0758 70.7023 27.6475 69.6598 28.7908C68.651 29.9005 68.1466 31.3801 68.1466 33.2296V47H60.984V28.5386ZM97.4709 47.5044C95.8232 47.5044 94.3436 47.1513 93.0321 46.4451C91.7207 45.739 90.695 44.7806 89.9552 43.57C89.2154 42.3258 88.8455 40.9303 88.8455 39.3834C88.8455 36.7941 89.888 34.8101 91.9729 33.4314C94.0578 32.0526 97.0506 31.3633 100.951 31.3633H104.482V30.3545C104.482 29.2111 104.112 28.32 103.373 27.6811C102.633 27.0422 101.624 26.7227 100.346 26.7227C98.8328 26.7227 97.37 26.9749 95.9577 27.4793C94.579 27.9837 93.4357 28.6731 92.5277 29.5474L89.4508 25.4617C90.8968 24.1839 92.595 23.175 94.5454 22.4352C96.5294 21.6618 98.5302 21.2751 100.548 21.2751C103.978 21.2751 106.685 22.0821 108.669 23.6963C110.653 25.2767 111.645 27.4457 111.645 30.2031V41.5524C111.645 42.3594 111.712 43.3178 111.847 44.4275C111.981 45.5372 112.132 46.3947 112.301 47H105.895C105.693 46.5292 105.541 46.1089 105.441 45.739C105.34 45.3691 105.256 44.8479 105.188 44.1753H105.088C103.204 46.3947 100.666 47.5044 97.4709 47.5044ZM99.3877 42.2081C100.867 42.2081 102.078 41.8382 103.019 41.0984C103.995 40.325 104.482 39.3498 104.482 38.1728V36.0543H100.75C99.1691 36.0543 97.9585 36.3401 97.1178 36.9118C96.2772 37.4835 95.8568 38.3073 95.8568 39.3834C95.8568 40.2913 96.1595 40.9975 96.7648 41.5019C97.37 41.9727 98.2444 42.2081 99.3877 42.2081ZM129.281 11.6913H153.695V18.1477H137.402V26.5714H152.636V33.0278H137.402V47H129.281V11.6913ZM165.399 47.5044C163.751 47.5044 162.271 47.1513 160.96 46.4451C159.649 45.739 158.623 44.7806 157.883 43.57C157.143 42.3258 156.773 40.9303 156.773 39.3834C156.773 36.7941 157.816 34.8101 159.901 33.4314C161.986 32.0526 164.978 31.3633 168.879 31.3633H172.41V30.3545C172.41 29.2111 172.04 28.32 171.3 27.6811C170.561 27.0422 169.552 26.7227 168.274 26.7227C166.761 26.7227 165.298 26.9749 163.886 27.4793C162.507 27.9837 161.364 28.6731 160.456 29.5474L157.379 25.4617C158.825 24.1839 160.523 23.175 162.473 22.4352C164.457 21.6618 166.458 21.2751 168.476 21.2751C171.906 21.2751 174.613 22.0821 176.597 23.6963C178.581 25.2767 179.573 27.4457 179.573 30.2031V41.5524C179.573 42.3594 179.64 43.3178 179.774 44.4275C179.909 45.5372 180.06 46.3947 180.228 47H173.822C173.621 46.5292 173.469 46.1089 173.368 45.739C173.268 45.3691 173.184 44.8479 173.116 44.1753H173.015C171.132 46.3947 168.593 47.5044 165.399 47.5044ZM167.316 42.2081C168.795 42.2081 170.006 41.8382 170.947 41.0984C171.923 40.325 172.41 39.3498 172.41 38.1728V36.0543H168.677C167.097 36.0543 165.886 36.3401 165.046 36.9118C164.205 37.4835 163.785 38.3073 163.785 39.3834C163.785 40.2913 164.087 40.9975 164.693 41.5019C165.298 41.9727 166.172 42.2081 167.316 42.2081ZM184.878 27.9333C184.878 25.075 184.828 23.0237 184.727 21.7795H191.536C191.671 23.091 191.738 24.5706 191.738 26.2183V26.7227H191.94C192.579 25.075 193.722 23.7635 195.37 22.7883C197.051 21.7795 198.968 21.2751 201.12 21.2751C201.557 21.2751 202.078 21.3255 202.684 21.4264V27.0254C202.617 26.9917 202.28 26.9749 201.675 26.9749C199.96 26.9749 198.363 27.4121 196.883 28.2864C195.403 29.1607 194.226 30.3208 193.352 31.7668C192.478 33.2128 192.041 34.7765 192.041 36.4578V47H184.878V27.9333ZM205.412 28.589C205.412 25.1927 205.345 22.9228 205.21 21.7795H211.465C211.633 23.0237 211.717 24.4865 211.717 26.1679H211.818C212.289 24.6546 213.213 23.4609 214.592 22.5866C216.005 21.7122 217.686 21.2751 219.636 21.2751C221.452 21.2751 222.999 21.6618 224.277 22.4352C225.588 23.175 226.446 24.1839 226.849 25.4617C227.522 24.1839 228.531 23.175 229.876 22.4352C231.255 21.6618 232.768 21.2751 234.416 21.2751C237.207 21.2751 239.409 22.183 241.023 23.9989C242.637 25.7812 243.444 28.2528 243.444 31.4137V47H236.332V32.2712C236.332 30.6571 235.979 29.3961 235.273 28.4882C234.567 27.5466 233.608 27.0758 232.398 27.0758C231.019 27.0758 229.926 27.5466 229.119 28.4882C228.346 29.3961 227.959 30.6739 227.959 32.3217V47H220.897V32.473C220.897 30.7916 220.544 29.4802 219.838 28.5386C219.166 27.5634 218.224 27.0758 217.013 27.0758C215.635 27.0758 214.542 27.5634 213.735 28.5386C212.928 29.4802 212.524 30.7916 212.524 32.473V47H205.412V28.589Z" fill="white"/>
</svg>
