<svg width="108" height="26" viewBox="0 0 108 26" fill="none" xmlns="http://www.w3.org/2000/svg">
<circle cx="13" cy="13" r="13" fill="#025464"/>
<path d="M19.6047 11.0741C18.9222 10.9423 18.6586 10.4758 18.7175 9.78234C18.7385 9.53678 18.8293 9.29473 18.9096 9.05852C18.9389 8.97238 19.0734 8.82933 19.1369 8.75488C19.128 9.15986 19.2917 9.56289 19.5267 9.88524C19.8042 10.2657 19.8249 10.7576 19.6047 11.0741Z" fill="#F53530"/>
<path d="M3 11.7608C3.03898 11.6216 3.07055 11.4801 3.11693 11.3433C3.19801 11.1059 3.2822 10.8693 3.37497 10.6362C3.47514 10.3852 3.60221 10.1443 3.68991 9.88942C3.96196 9.09203 4.48377 8.40356 5.17795 7.92613C5.87213 7.44869 6.70172 7.2077 7.54366 7.23892C8.32789 7.26855 9.02482 7.54607 9.65977 7.9795C10.4226 8.50103 11.0684 9.15157 11.5327 9.95218C11.8761 10.5439 12.1641 11.1675 12.4763 11.7771C12.5289 11.88 12.5788 11.9841 12.6353 12.0987C13.3147 11.6699 13.7372 11.0697 13.9516 10.3213C14.0405 10.0095 14.0861 9.6883 14.1633 9.37452C14.3075 8.761 14.5764 8.18371 14.9534 7.67859C15.052 7.56907 15.1451 7.45408 15.2508 7.35118C15.4265 7.18007 15.6105 7.01714 15.791 6.8507C16.0759 6.70142 16.3495 6.5229 16.6485 6.40869C17.6039 6.0423 18.4992 6.20133 19.3341 6.77119L19.8314 7.24789L20.8304 8.11008C20.8827 8.15529 20.933 8.20285 21 8.26326L19.7071 8.83351C19.8544 9.0397 19.9944 9.22953 20.1296 9.42442C20.5467 10.0262 20.6465 10.6631 20.3027 11.3304C20.1023 11.7202 19.7617 11.9697 19.4031 12.1536C19.6046 12.591 19.8287 13.0104 19.9944 13.4497C20.5163 14.8548 20.3892 16.2397 19.7975 17.5946C19.0651 19.2706 17.7781 20.3055 16.0525 20.8524C15.462 21.0398 14.8707 21.1392 14.2576 21.1158C14.0441 21.1088 13.8319 21.0793 13.6246 21.0278C12.4058 20.7183 11.2271 20.3094 10.237 19.4983C9.85463 19.1873 9.49293 18.8518 9.15422 18.4938C8.86773 18.1878 8.55825 18.0405 8.133 18.0385C6.78943 18.0315 5.74171 17.4589 5.06232 16.2884C4.2356 14.8638 5.07986 12.9776 6.75513 12.6837C7.04948 12.6389 7.34911 12.6414 7.64266 12.6912C7.90264 12.7301 8.13963 12.7344 8.37973 12.6268C8.49082 12.5769 8.60892 12.543 8.73053 12.4994C7.63136 11.6259 5.95024 11.7892 5.13989 12.8424C4.81871 13.2595 4.66864 13.7471 4.60511 14.2612C4.58211 14.4459 4.52949 14.5843 4.33577 14.6354C4.13465 14.6884 3.97951 14.6182 3.85751 14.46C3.44903 13.9287 3.14071 13.351 3.03898 12.6787C3.03547 12.6572 3.0152 12.6397 3.00273 12.6187L3 11.7608ZM19.1213 8.80272C19.145 8.71695 19.1736 8.63262 19.207 8.55014C19.4873 7.9452 19.5305 8.15296 19.0866 7.61194C19.0733 7.59811 19.0584 7.58594 19.0421 7.57569C18.7763 7.30791 18.4653 7.1138 18.0926 7.04598C17.1689 6.87682 16.4263 7.24399 15.8015 7.88167C15.2118 8.4831 14.9612 9.25408 14.8162 10.0613C14.5125 11.7526 13.2633 13.0961 11.5366 13.4048C11.2871 13.4497 11.0345 13.4781 10.757 13.5179C11.1246 13.9638 11.4652 14.3875 11.8203 14.7987C11.8555 14.835 11.8981 14.8633 11.9451 14.8818C11.9922 14.9003 12.0427 14.9085 12.0932 14.9059C13.0777 14.7593 13.9918 14.4194 14.7503 13.7654C15.5298 13.0926 16.0198 12.2515 16.0327 11.1843C16.035 10.9964 16.0498 10.8085 16.065 10.6206C16.0833 10.3946 16.2661 10.2161 16.4665 10.2211C16.6926 10.2266 16.8473 10.4004 16.845 10.6468C16.845 10.7508 16.8414 10.8549 16.8399 10.9586C16.8266 11.9272 16.5592 12.8151 15.9699 13.5888C15.1307 14.6864 13.9918 15.2933 12.6611 15.5829C12.6197 15.5919 12.58 15.6067 12.518 15.6254C12.7055 15.7895 12.8715 15.9427 13.0454 16.0865C13.6831 16.6123 14.4065 16.8271 15.2227 16.6498C16.6294 16.3414 17.7048 14.9963 17.8038 13.3717C17.8529 12.5703 17.7902 11.7623 17.7835 10.957C17.7835 10.8837 17.8225 10.8097 17.8432 10.736C17.9773 10.9863 18.157 11.1917 18.4099 11.3293C18.8274 11.5557 19.3583 11.4213 19.5816 11.0303C19.8018 10.7138 19.7726 10.2589 19.4951 9.87851C19.26 9.55616 19.1123 9.2077 19.1213 8.80272ZM4.8838 9.13052C4.9393 9.13005 4.99453 9.12285 5.04829 9.10908C6.33456 8.60549 7.58185 8.64135 8.78198 9.35932C9.46332 9.76508 10.0706 10.2441 10.458 10.966C10.757 11.5234 11.0957 12.0593 11.4325 12.6303L12.1505 12.3965C11.9883 12.0457 11.8367 11.7389 11.7007 11.4244C11.2228 10.3182 10.5411 9.37803 9.5401 8.68111C8.97336 8.28704 8.35557 8.02511 7.67189 7.98613C6.57155 7.92338 5.61776 8.26677 4.89004 9.13208L4.85496 9.16716L4.89667 9.17691L4.8838 9.13052ZM17.9379 15.5521C17.7789 15.7611 17.6615 15.9322 17.5267 16.0885C17.3869 16.2506 17.238 16.4047 17.0808 16.55C15.6951 17.8308 13.9236 17.6686 12.7877 16.8618C12.3956 16.5835 12.0429 16.2331 11.7264 15.8682C11.0419 15.0793 10.3957 14.2569 9.72408 13.4563C9.64612 13.3616 9.5058 13.2614 9.3916 13.2591C8.94185 13.2422 8.49724 13.3594 8.11429 13.5958C8.06871 13.6292 8.02607 13.6663 7.98683 13.7069C8.00945 13.7455 8.03444 13.7826 8.06167 13.818C8.35167 14.1411 8.64907 14.4584 8.93283 14.787C9.55648 15.5085 10.156 16.2514 10.7987 16.9549C11.1998 17.3938 11.6414 17.8125 12.2202 18.0163C12.7195 18.1905 13.2298 18.4112 13.7454 18.4431C14.4049 18.4841 15.0773 18.3749 15.7395 18.2931C16.0405 18.2541 16.3464 18.1952 16.606 17.9863C17.056 17.6216 17.4184 17.1606 17.6666 16.6373C17.8372 16.3005 17.9299 15.9296 17.9379 15.5521ZM4.08359 13.3643C4.10143 13.3277 4.11705 13.2901 4.13036 13.2517C4.28712 12.6425 4.65616 12.1092 5.17107 11.7479C6.17982 11.0213 7.27588 11.0182 8.40624 11.4411C8.94764 11.6442 9.38263 12.0044 9.77475 12.4117C10.0476 12.6939 10.3668 12.667 10.7235 12.6635C10.4623 12.2608 10.2055 11.8886 9.97315 11.5015C9.53114 10.7656 8.91412 10.234 8.13768 9.88202C7.02291 9.37764 5.92334 9.38544 4.90329 10.089C3.64158 10.9617 3.59519 12.1708 4.08359 13.3643ZM18.6223 12.6483C18.6223 13.2965 18.5573 13.9248 18.6878 14.5789C18.986 16.0709 18.454 17.3369 17.3626 18.3628C16.3663 19.2983 15.1206 19.6491 13.8012 19.7898C13.3868 19.8339 12.9678 19.835 12.525 19.8569C12.5901 19.8834 12.635 19.9021 12.6809 19.92C13.1853 20.1097 13.7162 20.2191 14.2545 20.2443C15.7988 20.3343 17.1311 19.8265 18.1659 18.6922C19.4795 17.2524 19.856 15.5646 19.2448 13.6917C19.1178 13.3058 18.9369 12.9379 18.6239 12.6483H18.6223ZM7.13595 13.4169C6.20944 13.383 5.44158 14.2561 5.54721 15.229C5.62516 15.9474 6.03443 16.4482 6.59961 16.8329C7.32148 17.3252 8.14742 17.3486 8.97726 17.2746C9.26141 17.2492 9.54049 17.165 9.87648 17.0968C9.61338 16.7912 9.36977 16.5469 9.17488 16.2689C8.97999 15.991 8.72858 15.9329 8.40702 15.9376C8.12983 15.9406 7.85433 15.894 7.59355 15.8C7.29524 15.6883 7.04802 15.4714 6.89837 15.1902C6.74871 14.9089 6.70693 14.5827 6.78086 14.2729C6.85414 13.979 7.01473 13.7061 7.13595 13.4169ZM9.95912 18.1839C10.2062 18.4568 10.4576 18.6692 10.7722 18.7896C11.4769 19.059 12.2144 19.1502 12.9628 19.1545C13.4578 19.1572 13.9481 19.1038 14.4221 18.9456C14.3243 18.9354 14.2272 18.9385 14.1301 18.9346C13.807 18.9226 13.4784 18.9424 13.1631 18.8863C12.6954 18.8037 12.2179 18.7105 11.777 18.5386C11.4173 18.3987 11.1074 18.1325 10.7699 17.9313C10.6954 17.8869 10.5789 17.8386 10.5142 17.8666C10.3278 17.9481 10.1571 18.0674 9.95912 18.1839ZM8.22499 15.1206C7.99853 14.8751 7.77869 14.6369 7.54872 14.3871C7.48246 14.8279 7.89524 15.2228 8.22499 15.1206Z" fill="white"/>
<path d="M19.3336 6.77082C18.4987 6.20096 17.6034 6.04193 16.648 6.40832C16.3495 6.52253 16.0758 6.70105 15.7905 6.85033C15.4565 6.85033 15.1193 6.87684 14.7888 6.84215C14.1192 6.77277 13.5025 6.56306 13.0469 6.02634C13.0777 5.73634 13.2694 5.58667 13.5587 5.65644C14.1063 5.78857 14.65 5.93786 15.1957 6.0774C15.273 6.09719 15.3544 6.09366 15.4296 6.06726C15.3259 5.95501 15.2211 5.84353 15.1178 5.7305C14.9494 5.54574 14.8036 5.35046 14.7946 5.08502C14.7833 4.76111 14.9739 4.55609 15.299 4.54985C15.6888 4.54245 16.0186 4.70577 16.3249 4.91781C16.5857 5.09671 16.8262 5.30525 17.0749 5.50247C17.1275 5.54379 17.177 5.58901 17.2651 5.66423C17.1329 5.41711 17.0101 5.22261 16.924 5.01291C16.8685 4.86759 16.839 4.7136 16.8371 4.55804C16.8246 4.14292 17.2222 3.8845 17.6038 4.05133C17.9004 4.18615 18.1581 4.39402 18.3525 4.65548C18.5993 4.97432 18.8308 5.30213 18.9197 5.70789C18.9232 5.72309 18.9438 5.73478 18.9672 5.75973C18.9969 5.65098 19.0265 5.5547 19.0495 5.45687C19.0962 5.25847 19.2167 5.12829 19.4186 5.10919C19.6205 5.09009 19.7351 5.22612 19.801 5.40503C19.8142 5.4405 19.8286 5.47558 19.8427 5.51105L19.8836 5.59953L19.8813 5.59563V6.03959C19.6622 6.01114 19.5862 6.12261 19.5305 6.27346C19.4732 6.44301 19.4003 6.60594 19.3336 6.77082Z" fill="#F53530"/>
<path d="M13.0472 6.02637C13.5036 6.56309 14.1195 6.77279 14.7891 6.84218C15.1196 6.87687 15.4568 6.84958 15.7908 6.85036C15.6104 7.0168 15.4264 7.17972 15.2506 7.35084C15.145 7.45374 15.0518 7.56872 14.9532 7.67825C14.4235 7.65759 13.9487 7.50363 13.5582 7.12671C13.2791 6.85738 13.0639 6.5592 13.0515 6.15227C13.0515 6.12927 13.0487 6.10666 13.0472 6.08405C13.0456 6.06145 13.0468 6.04586 13.0472 6.02637Z" fill="#B2161D"/>
<path d="M19.334 6.7705C19.4006 6.60562 19.4735 6.44269 19.5332 6.27509C19.5873 6.12268 19.6633 6.01121 19.884 6.04122V5.5957C20.0902 5.98548 20.0695 6.3928 19.9744 6.80402C19.9397 6.95486 19.8808 7.09986 19.8329 7.24759L19.334 6.7705Z" fill="#B2161D"/>
<path d="M17.8428 10.7355C17.7696 10.1275 17.8651 9.54592 18.1652 9.01309C18.4408 8.52431 18.7499 8.05384 19.0418 7.5752C19.058 7.58544 19.0729 7.59761 19.0862 7.61144C19.5302 8.15246 19.4869 7.94471 19.2067 8.54964C19.1733 8.63212 19.1446 8.71645 19.1209 8.80222C19.0574 8.87667 18.965 8.94176 18.9358 9.0279C18.8555 9.26411 18.7647 9.50616 18.7436 9.75172C18.6844 10.4463 18.8995 10.8981 19.5813 11.0298C19.3579 11.4196 18.827 11.5552 18.4096 11.3288C18.1566 11.1912 17.9769 10.9858 17.8428 10.7355Z" fill="#B2161D"/>
<path d="M17.3857 7.9839C17.3857 7.75276 17.5935 7.55514 17.8437 7.54891C18.0499 7.54384 18.2815 7.78628 18.285 8.01157C18.2881 8.20646 18.0441 8.43215 17.825 8.43682C17.5912 8.4415 17.3865 8.23024 17.3857 7.9839Z" fill="white"/>
<path d="M59.0001 10.5463C59.4297 10.4213 59.8521 10.2538 60.2905 10.1863C60.6406 10.1326 61.0132 10.1812 61.3702 10.2209C62.1111 10.3023 62.7402 10.6643 63.3588 11.0454C63.691 11.1255 64.021 11.2201 64.3569 11.283C65.3211 11.4641 66.2695 11.4246 67.1795 11.0304C67.4358 10.9191 67.7103 10.8236 67.8761 10.5093L67.8394 10.8218C68.0176 10.321 67.7447 9.92945 67.2096 9.9637C66.7171 9.99526 66.2276 10.0721 65.7368 10.1313C65.3986 10.1727 65.0569 10.2209 64.7166 10.2571C64.6497 10.2641 64.5782 10.2299 64.4833 10.2095C64.7453 9.99363 64.9888 9.81175 65.2101 9.60644C65.4314 9.40113 65.5911 9.1475 65.6137 8.83175C65.6391 8.46865 65.4158 8.18874 65.052 8.11703C64.5633 8.02135 64.1066 8.15521 63.6678 8.33446C63.3179 8.47592 62.9943 8.66813 62.6589 8.83813L62.0784 9.2545L62.0294 9.19943L62.5051 8.69076C62.6626 8.37056 62.8403 8.06753 62.8538 7.68769C62.8686 7.27732 62.4011 6.8345 61.9057 6.96656C61.2749 7.13481 60.7967 7.52316 60.3777 7.99299C60.0966 8.30636 59.8284 8.63221 59.6932 9.04161C59.6838 9.06956 59.645 9.08748 59.6114 9.11807C59.593 8.94383 59.5808 8.77799 59.5595 8.61383C59.5189 8.33013 59.3125 8.11906 59.0591 8.09153C58.8202 8.06351 58.6118 8.21114 58.4908 8.4896C58.4745 8.55372 58.4354 8.60896 58.4103 8.67026C58.3038 8.89177 58.1468 9.10675 58.2709 9.37503L58.37 9.4976C58.499 9.59657 58.6274 9.42446 58.6372 9.63987C58.6503 9.88363 58.7136 10.1381 58.7777 10.3775C58.7957 10.4421 58.9513 10.489 59.0001 10.5463Z" fill="#F6342F"/>
<path d="M67.8706 10.767L67.9072 10.4551C67.7401 10.7671 67.4623 10.862 67.2027 10.9743C66.2818 11.3664 65.3215 11.4043 64.3447 11.2219C64.0045 11.1584 63.5853 11.0535 63.2487 10.973C63.4089 11.1225 63.6636 11.2733 63.8119 11.433C64.0972 11.74 64.3703 12.0549 64.6482 12.3666C65.2973 12.4974 65.9423 12.4959 66.5345 12.1906C67.146 11.8749 67.6865 11.4732 67.8706 10.767Z" fill="#B3151C"/>
<path d="M58.9833 10.5264C58.9351 10.4704 58.8676 10.4211 58.8504 10.3579C58.7871 10.1235 58.7104 9.88595 58.6974 9.64725C58.6861 9.43612 58.5376 9.37686 58.4122 9.28005L58.3416 9.3925C58.2192 9.12971 58.3146 8.91339 58.4194 8.69656C58.444 8.63655 58.4644 8.57494 58.4804 8.51215C58.1095 8.97411 57.9795 9.51798 57.9899 10.0869C57.9952 10.4245 58.0892 10.7607 58.1449 11.0972C58.2255 11.0401 58.3051 10.9819 58.3871 10.9266C58.5848 10.792 58.7836 10.6586 58.9833 10.5264Z" fill="#B3151C"/>
<path d="M29.386 16.7775L34.8067 8.79942H29.8364V6.74055H38.0558V7.99517L32.6995 15.9411H38.2649V18H29.386V16.7775ZM43.0434 18.1608C41.7137 18.1608 40.6736 17.7909 39.9229 17.051C39.183 16.3111 38.8131 15.287 38.8131 13.9788C38.8131 12.6705 39.183 11.6465 39.9229 10.9065C40.6736 10.1666 41.7137 9.79669 43.0434 9.79669C44.3731 9.79669 45.4079 10.1666 46.1478 10.9065C46.8984 11.6465 47.2737 12.6705 47.2737 13.9788C47.2737 15.287 46.8984 16.3111 46.1478 17.051C45.4079 17.7909 44.3731 18.1608 43.0434 18.1608ZM43.0434 16.4719C43.6546 16.4719 44.1318 16.2521 44.475 15.8124C44.8181 15.3728 44.9897 14.7616 44.9897 13.9788C44.9897 13.196 44.8181 12.5847 44.475 12.1451C44.1318 11.7054 43.6546 11.4856 43.0434 11.4856C42.4322 11.4856 41.955 11.7054 41.6118 12.1451C41.2687 12.5847 41.0971 13.196 41.0971 13.9788C41.0971 14.7616 41.2687 15.3728 41.6118 15.8124C41.955 16.2521 42.4322 16.4719 43.0434 16.4719ZM48.4469 12.1129C48.4469 11.1585 48.4255 10.4401 48.3826 9.95754H50.5219C50.5862 10.4508 50.6184 10.9173 50.6184 11.3569H50.6506C50.8329 10.8958 51.1653 10.5205 51.6478 10.231C52.1411 9.94145 52.688 9.79669 53.2885 9.79669C54.2107 9.79669 54.9077 10.1077 55.3795 10.7296C55.8514 11.3516 56.0873 12.2738 56.0873 13.4962V18H53.8032V13.4801C53.8032 12.8367 53.7013 12.3703 53.4976 12.0807C53.2939 11.7912 52.9668 11.6465 52.5164 11.6465C51.9803 11.6465 51.546 11.8287 51.2135 12.1933C50.8918 12.5472 50.731 13.019 50.731 13.6088V18H48.4469V12.1129ZM60.0821 18.1608C59.5567 18.1608 59.0848 18.0483 58.6666 17.8231C58.2484 17.5979 57.9214 17.2923 57.6855 16.9062C57.4495 16.5095 57.3316 16.0644 57.3316 15.5712C57.3316 14.7455 57.664 14.1128 58.3289 13.6732C58.9937 13.2335 59.9481 13.0137 61.192 13.0137H62.3179V12.692C62.3179 12.3274 62.2 12.0432 61.964 11.8395C61.7281 11.6357 61.4064 11.5339 60.999 11.5339C60.5164 11.5339 60.0499 11.6143 59.5996 11.7751C59.1599 11.936 58.7953 12.1558 58.5058 12.4346L57.5246 11.1317C57.9857 10.7243 58.5272 10.4026 59.1492 10.1666C59.7819 9.92 60.4199 9.79669 61.0633 9.79669C62.1571 9.79669 63.0203 10.054 63.653 10.5688C64.2856 11.0728 64.602 11.7644 64.602 12.6437V16.2628C64.602 16.5202 64.6234 16.8258 64.6663 17.1797C64.7092 17.5335 64.7575 17.807 64.8111 18H62.7683C62.704 17.8499 62.6557 17.7158 62.6235 17.5979C62.5914 17.4799 62.5646 17.3137 62.5431 17.0992H62.5109C61.9104 17.807 61.1008 18.1608 60.0821 18.1608ZM60.6933 16.4719C61.1652 16.4719 61.5512 16.354 61.8515 16.1181C62.1624 15.8714 62.3179 15.5605 62.3179 15.1851V14.5096H61.1276C60.6236 14.5096 60.2376 14.6007 59.9695 14.783C59.7014 14.9653 59.5674 15.228 59.5674 15.5712C59.5674 15.8607 59.6639 16.0859 59.8569 16.2467C60.0499 16.3969 60.3287 16.4719 60.6933 16.4719ZM70.226 6.74055H78.0112V8.79942H72.8157V11.4856H77.6734V13.5445H72.8157V18H70.226V6.74055ZM81.7434 18.1608C81.2179 18.1608 80.7461 18.0483 80.3279 17.8231C79.9097 17.5979 79.5826 17.2923 79.3467 16.9062C79.1108 16.5095 78.9928 16.0644 78.9928 15.5712C78.9928 14.7455 79.3253 14.1128 79.9901 13.6732C80.6549 13.2335 81.6093 13.0137 82.8532 13.0137H83.9792V12.692C83.9792 12.3274 83.8612 12.0432 83.6253 11.8395C83.3894 11.6357 83.0677 11.5339 82.6602 11.5339C82.1777 11.5339 81.7112 11.6143 81.2608 11.7751C80.8212 11.936 80.4566 12.1558 80.167 12.4346L79.1859 11.1317C79.647 10.7243 80.1885 10.4026 80.8104 10.1666C81.4431 9.92 82.0811 9.79669 82.7245 9.79669C83.8183 9.79669 84.6815 10.054 85.3142 10.5688C85.9469 11.0728 86.2632 11.7644 86.2632 12.6437V16.2628C86.2632 16.5202 86.2847 16.8258 86.3276 17.1797C86.3705 17.5335 86.4187 17.807 86.4723 18H84.4295C84.3652 17.8499 84.3169 17.7158 84.2848 17.5979C84.2526 17.4799 84.2258 17.3137 84.2044 17.0992H84.1722C83.5717 17.807 82.7621 18.1608 81.7434 18.1608ZM82.3546 16.4719C82.8264 16.4719 83.2125 16.354 83.5127 16.1181C83.8237 15.8714 83.9792 15.5605 83.9792 15.1851V14.5096H82.7889C82.2849 14.5096 81.8988 14.6007 81.6308 14.783C81.3627 14.9653 81.2286 15.228 81.2286 15.5712C81.2286 15.8607 81.3252 16.0859 81.5182 16.2467C81.7112 16.3969 81.99 16.4719 82.3546 16.4719ZM87.955 11.9199C87.955 11.0084 87.9389 10.3543 87.9068 9.95754H90.0782C90.1211 10.3757 90.1426 10.8476 90.1426 11.373V11.5339H90.2069C90.4107 11.0084 90.7753 10.5902 91.3007 10.2792C91.8369 9.95754 92.4481 9.79669 93.1344 9.79669C93.2738 9.79669 93.44 9.81277 93.633 9.84494V11.6304C93.6116 11.6196 93.5043 11.6143 93.3113 11.6143C92.7644 11.6143 92.2551 11.7537 91.7832 12.0325C91.3114 12.3113 90.9361 12.6812 90.6573 13.1424C90.3785 13.6035 90.2391 14.1021 90.2391 14.6382V18H87.955V11.9199ZM94.503 12.129C94.503 11.0459 94.4815 10.3221 94.4386 9.95754H96.4332C96.4868 10.3543 96.5136 10.8208 96.5136 11.3569H96.5458C96.6959 10.8744 96.9908 10.4937 97.4304 10.2149C97.8808 9.93609 98.417 9.79669 99.0389 9.79669C99.618 9.79669 100.111 9.92 100.519 10.1666C100.937 10.4026 101.21 10.7243 101.339 11.1317C101.554 10.7243 101.875 10.4026 102.304 10.1666C102.744 9.92 103.226 9.79669 103.752 9.79669C104.642 9.79669 105.344 10.0862 105.859 10.6653C106.374 11.2336 106.631 12.0218 106.631 13.0298V18H104.363V13.3032C104.363 12.7885 104.25 12.3864 104.025 12.0968C103.8 11.7966 103.494 11.6465 103.108 11.6465C102.669 11.6465 102.32 11.7966 102.063 12.0968C101.816 12.3864 101.693 12.7938 101.693 13.3193V18H99.4411V13.3675C99.4411 12.8314 99.3285 12.4132 99.1033 12.1129C98.8888 11.8019 98.5886 11.6465 98.2025 11.6465C97.7629 11.6465 97.4144 11.8019 97.157 12.1129C96.8996 12.4132 96.771 12.8314 96.771 13.3675V18H94.503V12.129Z" fill="#025464"/>
</svg>
